<svg width="27" height="27" viewBox="0 0 27 27" fill="none" xmlns="http://www.w3.org/2000/svg">
<path d="M1 26H20.1327C23.3732 26 26 23.3732 26 20.1327V1H6.86735C3.62679 1 1 3.62679 1 6.86735V26Z" stroke="#FEB32A" stroke-width="0.606382"/>
<path d="M4.99008 18.0483H4.82617V18.174H11.4043L11.9889 15.5843H11.8633C11.6611 16.2344 11.3497 16.7371 10.929 17.0922C10.5083 17.4473 9.98925 17.6276 9.37186 17.6276H7.71094V14.0599H9.41011C9.71607 14.0654 9.96739 14.1747 10.1641 14.3768C10.3662 14.579 10.4646 14.8358 10.4646 15.1526V15.251H10.5902V12.3171H10.4646V12.4318C10.4646 12.7377 10.3662 12.9945 10.1586 13.2022C9.95647 13.4098 9.69968 13.519 9.38826 13.5245H7.71094V9.83113H9.84173C10.0985 9.83659 10.3171 9.89669 10.5028 10.006C10.8907 10.2245 11.0874 10.6015 11.0874 11.126V11.2626L11.2131 11.279V9.0553C11.153 9.07715 10.9891 9.12632 10.7214 9.18642C10.4482 9.25199 10.104 9.28477 9.68875 9.28477H4.82617V9.41043H4.99008C5.20316 9.41043 5.41077 9.50331 5.61293 9.68907C5.7222 9.79288 5.78776 9.95132 5.80415 10.1699V17.2452C5.79322 17.4692 5.71127 17.655 5.55829 17.8134C5.39985 17.9664 5.20862 18.0483 4.99008 18.0483ZM12.956 18.0483H12.7921V18.174H16.6493L16.6384 18.0483H16.4854C16.2669 18.0483 16.0757 17.9664 15.9118 17.8134C15.7533 17.655 15.6714 17.4692 15.6714 17.2452V10.1972C15.6714 10.0551 15.7096 9.92401 15.7861 9.80381C15.95 9.54156 16.1795 9.41043 16.4854 9.41043H16.6384L16.6493 9.28477H12.7921V9.41043H12.956C13.098 9.41043 13.2291 9.44321 13.3493 9.51424C13.6171 9.66175 13.7591 9.89122 13.77 10.1972V17.2452C13.7591 17.4692 13.6772 17.655 13.5187 17.8134C13.3657 17.9664 13.1745 18.0483 12.956 18.0483ZM22.1238 18.174V18.0483C21.6485 18.0319 21.2169 17.7697 20.829 17.2616L17.6656 12.9399L20.146 10.006C20.5012 9.60166 20.9601 9.3995 21.5283 9.3995H21.5775V9.28477H18.6709V9.3995H18.7965C18.9659 9.3995 19.0861 9.4596 19.1517 9.58526C19.179 9.6399 19.1899 9.7 19.1899 9.76556C19.1899 9.83113 19.1571 9.90762 19.0916 9.99503L16.0811 13.9834C16.0811 14.0162 16.8351 15.0598 18.354 17.1195C18.8839 17.8243 19.7964 18.174 21.0858 18.174H22.1238Z" fill="#FEB32A"/>
</svg>
