<svg xmlns="http://www.w3.org/2000/svg" style="display: block; height: 0; width: 0">
    <symbol id="logo" viewBox="0 0 300 37">
        <g id="SvgjsG102388" transform="scale(0.5217028380634391)" opacity="1">
            <path d="M-284.88-.6h-.78V0h31.08l2.76-12.24h-.6c-.96 3.08-2.43 5.46-4.41 7.14-1.98 1.68-4.43 2.52-7.35 2.52h-7.86v-16.86h8.04c1.44.04 2.63.54 3.57 1.5.94.96 1.41 2.18 1.41 3.66v.48h.6v-13.86h-.6v.54c0 1.44-.48 2.65-1.44 3.63-.96.98-2.18 1.49-3.66 1.53h-7.92v-17.46h10.08c1.2.04 2.24.32 3.12.84 1.84 1.04 2.76 2.8 2.76 5.28v.66l.6.06v-10.5c-.28.12-1.06.33-2.34.63-1.28.3-2.9.45-4.86.45h-22.98v.6h.78c1 0 1.98.44 2.94 1.32.52.48.82 1.24.9 2.28v33.42a3.862 3.862 0 0 1-1.17 2.67c-.74.74-1.63 1.11-2.67 1.11zm65.46 1.44c4.48 0 8.52-.78 12.12-2.34 3.6-1.56 6.18-3.36 7.74-5.4v-9.9c0-.88.26-1.55.78-2.01.52-.46 1.26-.69 2.22-.69h.9v-.6h-16.86v.6h.96c1 0 1.77.23 2.31.69.54.46.81 1.13.81 2.01v9.18c-.48 1.24-1.24 2.32-2.28 3.24-2.12 1.8-4.76 2.7-7.92 2.7-4.36 0-7.73-1.7-10.11-5.1-2.38-3.4-3.57-8.11-3.57-14.13 0-6.02 1.3-10.76 3.9-14.22 2.6-3.46 6.32-5.19 11.16-5.19 3.48 0 6.48.87 9 2.61 2.52 1.74 4.3 4.55 5.34 8.43h.54l-.12-10.32c-1.84-.92-4.26-1.69-7.26-2.31-3-.62-6.1-.93-9.3-.93-7.08 0-12.69 1.96-16.83 5.88-4.14 3.92-6.21 9.23-6.21 15.93 0 6.7 2.07 12.02 6.21 15.96 4.14 3.94 9.63 5.91 16.47 5.91zm57.33-43.68c-7.22 0-12.96 1.96-17.22 5.88-4.26 3.92-6.39 9.24-6.39 15.96 0 6.72 2.13 12.04 6.39 15.96 4.26 3.92 10 5.88 17.22 5.88 7.22 0 12.96-1.96 17.22-5.88 4.26-3.92 6.39-9.24 6.39-15.96 0-6.72-2.13-12.04-6.39-15.96-4.26-3.92-10-5.88-17.22-5.88zm-.03 41.16c-4.24 0-7.59-1.73-10.05-5.19s-3.69-8.17-3.69-14.13 1.23-10.67 3.69-14.13 5.81-5.19 10.05-5.19c4.24 0 7.6 1.73 10.08 5.19s3.72 8.17 3.72 14.13-1.24 10.67-3.72 14.13-5.84 5.19-10.08 5.19zm50.04-37.68h1.8c2.08.04 3.78.79 5.1 2.25 1.32 1.46 1.98 3.83 1.98 7.11 0 .48-.08 1.14-.24 1.98-.48 2.44-1.41 4.2-2.79 5.28-1.38 1.08-2.97 1.62-4.77 1.62h-1.86v.6c1.6.24 2.96 1.58 4.08 4.02 2.56 5.52 4.22 8.94 4.98 10.26 1.32 2.32 3.13 3.94 5.43 4.86 2.3.92 5.19 1.38 8.67 1.38h5.88v-.6c-1.56-.04-2.86-.38-3.9-1.02-2.08-1.32-5.28-5.44-9.6-12.36-1.76-2.76-3.8-4.52-6.12-5.28 3.2-.32 5.64-1.6 7.32-3.84 1.68-2.24 2.52-4.57 2.52-6.99 0-2.42-.4-4.38-1.2-5.88-.8-1.5-1.88-2.67-3.24-3.51-2.68-1.68-5.96-2.52-9.84-2.52h-20.58v.6h.78c1.04 0 1.93.37 2.67 1.11.74.74 1.13 1.63 1.17 2.67v33.3c-.04.68-.22 1.3-.54 1.86-.76 1.24-1.86 1.86-3.3 1.86h-.78V0h18.24v-.6h-.78c-1.04 0-1.93-.37-2.67-1.11a3.862 3.862 0 0 1-1.17-2.67v-34.98h.18zM-56.04-.6h-.78V0h18.24l-.06-.6h-.72c-1.04 0-1.94-.37-2.7-1.11s-1.14-1.63-1.14-2.67v-33.3c0-.68.18-1.3.54-1.86.76-1.24 1.86-1.86 3.3-1.86h.72l.06-.6h-18.24v.6h.78c.68 0 1.3.16 1.86.48 1.28.72 1.94 1.8 1.98 3.24v33.3a3.862 3.862 0 0 1-1.17 2.67C-54.11-.97-55-.6-56.04-.6zm43.32.6v-.6c-2.24-.08-4.28-1.32-6.12-3.72l-14.94-20.4 11.7-13.86c1.68-1.92 3.86-2.88 6.54-2.88h.24V-42h-13.74v.54h.6c.8 0 1.36.3 1.68.9.12.24.18.52.18.84s-.16.68-.48 1.08L-41.28-19.8c0 .16 3.58 5.1 10.74 14.82C-28.02-1.66-23.72 0-17.64 0zm29.19-42.84c-7.22 0-12.96 1.96-17.22 5.88-4.26 3.92-6.39 9.24-6.39 15.96 0 6.72 2.13 12.04 6.39 15.96C3.51-1.12 9.25.84 16.47.84c7.22 0 12.96-1.96 17.22-5.88 4.26-3.92 6.39-9.24 6.39-15.96 0-6.72-2.13-12.04-6.39-15.96-4.26-3.92-10-5.88-17.22-5.88zm-.03 41.16c-4.24 0-7.59-1.73-10.05-5.19S2.7-15.04 2.7-21s1.23-10.67 3.69-14.13 5.81-5.19 10.05-5.19c4.24 0 7.6 1.73 10.08 5.19s3.72 8.17 3.72 14.13S29-10.33 26.52-6.87s-5.84 5.19-10.08 5.19zm35.16-3.9c0 1.08.14 2 .42 2.76C53.1-1.7 54.79-.81 57.09-.15c2.3.66 4.81.99 7.53.99 4.8 0 8.65-1.13 11.55-3.39 2.9-2.26 4.35-5.51 4.35-9.75 0-3.8-1.8-6.88-5.4-9.24l-11.46-7.44c-1.88-1.2-3.1-2.32-3.66-3.36-.36-.64-.54-1.42-.54-2.34 0-.92.36-1.84 1.08-2.76 1.4-1.92 3.66-2.88 6.78-2.88 2.56 0 4.61.63 6.15 1.89s2.31 2.93 2.31 5.01h.6l.78-8.82h-3.78c-3.24-.4-5.96-.6-8.16-.6-3.72 0-6.69.96-8.91 2.88-2.22 1.92-3.45 4.46-3.69 7.62-.08.4-.12.8-.12 1.2 0 3.8 1.94 7 5.82 9.6l10.44 6.9c1.72 1.12 2.95 2.14 3.69 3.06.74.92 1.11 1.96 1.11 3.12 0 1.96-.75 3.58-2.25 4.86-1.5 1.28-3.59 1.92-6.27 1.92-3.44 0-6.15-1.03-8.13-3.09S53.94-9.24 53.94-12c0-.32.02-.64.06-.96h-.54c-1.24 2.04-1.86 4.5-1.86 7.38zm62.22-33.96h8.04c1.24.04 2.3.32 3.18.84 1.88 1.04 2.82 2.8 2.82 5.28v.72h.6v-10.44c-.56.24-1.57.48-3.03.72-1.46.24-2.81.36-4.05.36H97.2c-3.08-.04-5.44-.4-7.08-1.08v10.44h.6v-.72c0-1.8.54-3.26 1.62-4.38 1.08-1.12 2.54-1.7 4.38-1.74h8.1v35.28c-.08 1-.49 1.86-1.23 2.58-.74.72-1.61 1.08-2.61 1.08h-.78V0h18.24l-.06-.6h-.72c-1.04 0-1.93-.36-2.67-1.08-.74-.72-1.13-1.6-1.17-2.64zm68.82-1.86v-.6H170.1v.6h.96c.56 0 1.08.12 1.56.36 1 .52 1.54 1.36 1.62 2.52v23.7c-.04 4-1.12 7.17-3.24 9.51-2.12 2.34-5 3.51-8.64 3.51-3.64 0-6.5-1.24-8.58-3.72s-3.12-5.84-3.12-10.08v-22.92c.04-.84.36-1.53.96-2.07.6-.54 1.34-.81 2.22-.81h.96v-.6h-17.28v.6h.96c.56 0 1.08.12 1.56.36 1.04.56 1.58 1.44 1.62 2.64v23.28c0 5 1.68 8.91 5.04 11.73 3.36 2.82 8.2 4.23 14.52 4.23 5.36 0 9.58-1.44 12.66-4.32s4.62-6.78 4.62-11.7v-23.4c.04-.8.36-1.47.96-2.01.6-.54 1.32-.81 2.16-.81zm16.8 36.36c4.4 3.88 10.46 5.83 18.18 5.85 7.72.02 13.2-2.65 16.44-8.01l-.6-10.32h-.48c-.96 5.84-2.68 9.96-5.16 12.36-2.44 2.32-5.98 3.48-10.62 3.48-4.48-.12-8.03-1.92-10.65-5.4s-3.93-8.18-3.93-14.1 1.37-10.59 4.11-14.01c2.74-3.42 6.47-5.13 11.19-5.13 7.28 0 11.94 3.68 13.98 11.04h.48l-.12-10.32c-4.16-2.16-9.14-3.24-14.94-3.24-7.6 0-13.58 1.95-17.94 5.85-4.36 3.9-6.54 9.23-6.54 15.99s2.2 12.08 6.6 15.96zM246.06-.6h-.78V0h18.24l-.06-.6h-.72c-1.04 0-1.94-.37-2.7-1.11s-1.14-1.63-1.14-2.67v-33.3c0-.68.18-1.3.54-1.86.76-1.24 1.86-1.86 3.3-1.86h.72l.06-.6h-18.24v.6h.78c.68 0 1.3.16 1.86.48 1.28.72 1.94 1.8 1.98 3.24v33.3a3.862 3.862 0 0 1-1.17 2.67c-.74.74-1.63 1.11-2.67 1.11zm43.32.6v-.6c-2.24-.08-4.28-1.32-6.12-3.72l-14.94-20.4 11.7-13.86c1.68-1.92 3.86-2.88 6.54-2.88h.24V-42h-13.74v.54h.6c.8 0 1.36.3 1.68.9.12.24.18.52.18.84s-.16.68-.48 1.08L260.82-19.8c0 .16 3.58 5.1 10.74 14.82 2.52 3.32 6.82 4.98 12.9 4.98z" id="SvgjsG102389" class="text" transform="translate(285.66, 43.14) scale(1)" light-content="false"/><path d="M-89.63-.24c-.77 0-1.38-.46-1.85-1.39l-5.92-13.11h-.22c-.02.23-.16.68-.43 1.35-.15.35-1.97 4.27-5.47 11.76-.23.46-.51.81-.86 1.04-.34.23-.68.35-1.02.35h-.19V0h4.59v-.24h-.2c-.32 0-.56-.11-.72-.32-.16-.22-.24-.42-.24-.6 0-.19.04-.38.12-.59l1.32-3.12h6.08l1.32 3.19c.06.18.09.36.09.54s-.08.38-.24.59c-.16.21-.39.31-.69.31h-.2V0h4.92v-.24zm-10.77-5.35 2.78-6.58 2.69 6.58zm16.65-8.07c.56 0 1.06.01 1.49.03.98.05 1.75.33 2.33.86.57.53.86 1.28.86 2.26 0 .77-.2 1.47-.6 2.11-.19.3-.55.59-1.08.86-.38.2-1.51.29-3.38.29v.24c.75 0 1.56.54 2.42 1.61.05.06.43.6 1.14 1.6s1.12 1.56 1.21 1.69c.45.54.95 1 1.49 1.37.72.49 1.71.74 2.98.74h.74v-.24c-.77 0-1.45-.28-2.04-.84-.22-.21-.51-.51-.85-.9-.34-.39-.8-.94-1.37-1.64-.57-.71-.84-1.06-.83-1.06-.72-1.02-1.33-1.65-1.84-1.87 1.08-.11 1.98-.55 2.68-1.3.71-.75 1.06-1.69 1.06-2.81 0-1.12-.44-2.02-1.31-2.71-.87-.69-2.06-1.03-3.56-1.03h-6.03v.24h.34c.37 0 .68.12.95.36.26.24.39.54.39.89v11.4c0 .35-.13.65-.39.9-.27.25-.58.37-.95.37h-.34V0h4.92l-.02-.24h-.31c-.26 0-.49-.06-.7-.17-.43-.25-.65-.63-.67-1.13v-12.12zm16.37-.04h4.34c.36 0 .64.12.87.36.22.24.33.52.33.86v.38h.27v-2.71c-.64.26-1.54.39-2.69.39h-7.82c-.29 0-.73-.04-1.31-.1-.59-.06-1.04-.16-1.36-.29v2.71h.27v-.38c0-.34.1-.62.32-.86.22-.24.51-.36.88-.36h4.34v12.16c-.02.36-.16.66-.43.92-.27.25-.6.38-.99.38h-.28V0h4.94v-.24h-.26c-.26 0-.49-.06-.7-.17-.46-.24-.7-.61-.72-1.1zm13.8 13.46h-.34V0h5.45l-.02-.24h-.31c-.44 0-.81-.12-1.13-.37s-.49-.55-.51-.9v-11.4c.04-.35.21-.65.52-.89.31-.24.68-.36 1.12-.36h.31v-.24h-5.43v.24h.32c.44 0 .83.13 1.15.38.32.26.48.56.48.92v11.32c0 .36-.16.66-.48.92-.32.25-.7.38-1.13.38zm23.86-13.92h.4v-.24h-4.53v.24h.41c.35 0 .65.12.91.35.25.23.4.51.43.85V-3l-12.46-11.74-.26-.02.05.38c.11.77.17 1.64.17 2.62v10.27c0 .35-.13.65-.39.89-.25.24-.57.36-.93.36h-.41V0h4.53v-.24h-.4c-.37 0-.68-.12-.94-.36a1.16 1.16 0 0 1-.38-.89V-11.5L-31.04.34h.21l-.05-.44c-.11-.83-.16-1.71-.16-2.64v-10.22c.01-.34.15-.62.4-.85.26-.23.56-.35.92-.35zm8.64 13.37c.41.37 1.01.65 1.8.84.78.19 1.56.29 2.35.29 1.18 0 2.19-.38 3.01-1.13.82-.75 1.24-1.67 1.24-2.76s-.37-1.94-1.11-2.55l-4.85-3.74c-.62-.51-.93-1.12-.93-1.81 0-.7.28-1.27.84-1.71.56-.44 1.27-.66 2.13-.66.87 0 1.53.19 2 .56.46.36.69.88.69 1.56h.27l-.05-2.62h-.79c-.64-.14-1.38-.22-2.21-.22-.83 0-1.56.16-2.17.47-.62.31-1.1.73-1.44 1.26a3.08 3.08 0 0 0-.52 1.73c0 1.1.38 1.98 1.15 2.64l4.8 3.7c.58.51.87 1.15.87 1.93 0 .77-.3 1.41-.89 1.89-.59.49-1.42.74-2.47.74-1.01 0-1.8-.28-2.37-.83-.57-.55-.85-1.26-.85-2.13 0-.14.01-.28.02-.43h-.28c-.21.61-.32 1.21-.32 1.8 0 .59.03.99.08 1.18zm11.35.55h-.34V0h5.45l-.02-.24h-.32c-.43 0-.8-.12-1.12-.37s-.49-.55-.51-.9v-11.4c.03-.35.21-.65.52-.89.31-.24.68-.36 1.11-.36h.32v-.24h-5.43v.24h.31c.45 0 .84.13 1.16.38.32.26.48.56.48.92v11.32c0 .36-.16.66-.48.92-.32.25-.7.38-1.13.38zm26.95 0c-.42 0-.78-.12-1.08-.36-.3-.24-.49-.56-.55-.96l-1.95-13.18h-.21L7.31-2.54.97-14.74H.73L-1.14-1.61c-.03.29-.13.54-.29.75-.32.41-.77.62-1.34.62h-.36V0h4.44v-.22H.97A.9.9 0 0 1 .31-.5C.13-.7.05-.91.08-1.15l1.08-9.67L6.95.34h.24c.11-.66.39-1.48.84-2.45l4.53-8.93 1.25 9.89c.03.25-.04.47-.23.66-.18.18-.39.27-.63.27h-.36V0h4.99v-.24zm6.02-6.58v.24c.82.39 1.65.58 2.5.58 1.71 0 2.98-.66 3.79-1.97.42-.67.63-1.45.63-2.35 0-1.25-.5-2.24-1.48-2.98-.98-.73-2.32-1.1-4-1.1h-5.61v.24h.33c.39 0 .71.12.98.36.26.24.4.54.42.91v11.38c-.02.35-.16.65-.42.9-.27.25-.59.37-.98.37h-.33V0h4.97v-.24h-.34c-.26 0-.49-.06-.7-.17-.44-.24-.68-.61-.69-1.13v-12.14h2.33c1.18 0 2.11.28 2.78.84.67.56 1.01 1.33 1.01 2.3 0 .55-.06.98-.17 1.3-.32.9-.82 1.55-1.49 1.97-.29.19-.61.33-.96.42-.35.09-.62.14-.81.15-.2.02-.44.03-.75.03-.3 0-.64-.05-1.01-.15zm9.44 6.58h-.34V0h9.74l1.32-3.43h-.24c-.25.57-.51 1.04-.78 1.39-.26.35-.65.66-1.16.91-.51.26-1.14.39-1.87.39H35.6v-12.12c0-.36.14-.66.42-.92.28-.25.62-.38 1-.38h.29v-.24h-4.97v.24h.29c.38 0 .71.13.99.38.28.26.43.56.45.92v11.35c-.02.35-.16.65-.42.9-.27.25-.59.37-.97.37zm12.28 0h-.33V0h5.45l-.03-.24h-.31c-.43 0-.81-.12-1.13-.37s-.49-.55-.5-.9v-11.4c.03-.35.2-.65.51-.89.32-.24.69-.36 1.12-.36h.31v-.24h-5.42v.24h.31c.45 0 .83.13 1.15.38.32.26.48.56.48.92v11.32c0 .36-.16.66-.48.92-.32.25-.69.38-1.13.38zm9.38-1.46C55.75-.36 57.68.32 60.13.34c1.41 0 2.71-.28 3.89-.83 1.18-.55 2.09-1.31 2.71-2.27L67-6.05h-.22c-.08 1.28-.43 2.35-1.04 3.22-.62.86-1.4 1.48-2.33 1.86-.94.37-2.03.56-3.28.56s-2.34-.28-3.29-.84c-.94-.56-1.66-1.35-2.16-2.36-.49-1.02-.74-2.21-.74-3.59 0-2.11.55-3.78 1.66-4.99 1.1-1.22 2.6-1.83 4.51-1.83 3.28 0 5.26 1.38 5.95 4.13h.22l-.53-3.41c-.74-.44-1.61-.8-2.62-1.05-1.01-.26-2.01-.39-3-.39-2.45 0-4.38.68-5.79 2.02-1.42 1.34-2.13 3.18-2.13 5.51 0 2.33.71 4.16 2.13 5.51zM69.59-.24h-.34V0h5.45l-.02-.24h-.32c-.43 0-.8-.12-1.12-.37s-.49-.55-.51-.9v-11.4c.03-.35.21-.65.52-.89.31-.24.68-.36 1.11-.36h.32v-.24h-5.43v.24h.31c.45 0 .84.13 1.16.38.32.26.48.56.48.92v11.32c0 .36-.16.66-.48.92-.32.25-.7.38-1.13.38zM83.72-13.7h4.35c.35 0 .64.12.86.36.23.24.34.52.34.86v.38h.26v-2.71c-.64.26-1.53.39-2.69.39h-7.82c-.29 0-.72-.04-1.31-.1-.58-.06-1.03-.16-1.35-.29v2.71h.26v-.38c0-.34.11-.62.32-.86.22-.24.51-.36.88-.36h4.34v12.16c-.01.36-.16.66-.43.92-.27.25-.6.38-.98.38h-.29V0h4.94v-.24h-.26c-.26 0-.49-.06-.7-.17-.46-.24-.7-.61-.72-1.1zm21.87-.46v-.24h-5.02v.24h.29c.32 0 .55.1.68.29.14.19.21.35.21.49 0 .14-.03.27-.07.4l-3.72 6.19-3.51-6.22a1.38 1.38 0 0 1-.05-.37c0-.14.07-.3.21-.49.13-.19.35-.29.66-.29h.29v-.24h-5.57v.24h.29c.92 0 1.66.4 2.2 1.2l4.44 6.98v4.44c0 .36-.13.66-.4.92-.28.25-.6.38-.99.38h-.29V0h4.92v-.24h-.28c-.39 0-.72-.13-.99-.38-.27-.26-.41-.56-.41-.92v-4.41l4.61-6.99c.26-.35.58-.64.97-.87.4-.23.81-.35 1.24-.35z" id="SvgjsG102390" class="text" transform="translate(287.52, 70.79) scale(1)" light-content="false"/>
        </g>
    </symbol>

    <symbol id="icon-gmail" viewBox="0 0 60 60">
        <path d="M50.6793 60.0009H46.2535C45.3136 60.0009 44.5516 59.2389 44.5516 58.299C44.5516 57.359 45.3136 56.5971 46.2535 56.5971H50.6793C53.9417 56.5971 56.5961 53.9428 56.5961 50.6803V9.32159C56.5961 6.05921 53.9418 3.4048 50.6793 3.4048H25.1211C24.1811 3.4048 23.4192 2.64285 23.4192 1.70289C23.4192 0.762929 24.1811 0.000976562 25.1211 0.000976562H50.6794C55.8186 0.000976562 60 4.1821 60 9.32159V50.6803C59.9999 55.8198 55.8188 60.0009 50.6793 60.0009ZM33.9485 60.0009H9.32061C4.18113 60.0009 0 55.8198 0 50.6803V9.32159C0 4.1821 4.18113 0.000976562 9.32061 0.000976562H13.1508C14.0907 0.000976562 14.8527 0.762929 14.8527 1.70289C14.8527 2.64285 14.0907 3.4048 13.1508 3.4048H9.32061C6.05823 3.4048 3.40382 6.05909 3.40382 9.32159V50.6803C3.40382 53.9427 6.05811 56.5971 9.32061 56.5971H33.9485C34.8883 56.5971 35.6504 57.359 35.6504 58.299C35.6505 59.2389 34.8883 60.0009 33.9485 60.0009Z"/>
        <path d="M46 30.8965C46 40.5693 39.2488 47.4531 29.2787 47.4531C19.7197 47.4531 12 39.8789 12 30.5C12 21.1211 19.7197 13.5469 29.2787 13.5469C33.9328 13.5469 37.8484 15.2217 40.8652 17.9834L36.1623 22.4199C30.0102 16.5957 18.5701 20.9707 18.5701 30.5C18.5701 36.4131 23.3844 41.2051 29.2787 41.2051C36.1205 41.2051 38.6844 36.3926 39.0885 33.8975H29.2787V28.0664H45.7283C45.8885 28.9346 46 29.7686 46 30.8965Z"/>
    </symbol>

    <symbol id="icon-phone" viewBox="0 0 60 60">
        <path fill-rule="evenodd" clip-rule="evenodd" d="M14 19.375C14 16.9588 16.0147 15 18.5 15H20.5574C21.848 15 22.973 15.8539 23.286 17.0712L24.9447 23.5217C25.2191 24.589 24.8089 25.7123 23.9036 26.3724L21.9632 27.7872C21.7617 27.9342 21.7179 28.1493 21.7745 28.2995C23.4778 32.8201 27.1708 36.4105 31.8205 38.0665C31.975 38.1215 32.1963 38.0789 32.3474 37.883L33.8027 35.9965C34.4817 35.1163 35.637 34.7175 36.7349 34.9844L43.3696 36.597C44.6217 36.9013 45.5 37.995 45.5 39.2497V41.25C45.5 43.6662 43.4853 45.625 41 45.625H37.625C24.5773 45.625 14 35.3415 14 22.6562V19.375Z"/>
        <path d="M50.6794 60H46.2537C45.3137 60 44.5518 59.238 44.5518 58.2981C44.5518 57.3581 45.3137 56.5962 46.2537 56.5962H50.6794C53.9418 56.5962 56.5962 53.9419 56.5962 50.6794V9.32063C56.5962 6.05824 53.9419 3.40383 50.6794 3.40383H25.1211C24.1812 3.40383 23.4192 2.64188 23.4192 1.70191C23.4192 0.761953 24.1812 0 25.1211 0H50.6794C55.8189 0 60 4.18113 60 9.32063V50.6794C60 55.8189 55.8189 60 50.6794 60ZM33.9484 60H9.32063C4.18113 60 0 55.8189 0 50.6794V9.32063C0 4.18113 4.18113 0 9.32063 0H13.1508C14.0907 0 14.8527 0.761953 14.8527 1.70191C14.8527 2.64188 14.0907 3.40383 13.1508 3.40383H9.32063C6.05824 3.40383 3.40383 6.05813 3.40383 9.32063V50.6794C3.40383 53.9418 6.05813 56.5962 9.32063 56.5962H33.9484C34.8884 56.5962 35.6503 57.3581 35.6503 58.2981C35.6503 59.238 34.8884 60 33.9484 60Z"/>
    </symbol>

    <symbol id="icon-linkedin" viewBox="0 0 60 60">
        <path d="M50.6794 60H46.2537C45.3137 60 44.5518 59.238 44.5518 58.2981C44.5518 57.3581 45.3137 56.5962 46.2537 56.5962H50.6794C53.9418 56.5962 56.5962 53.9419 56.5962 50.6794V9.32063C56.5962 6.05824 53.9419 3.40383 50.6794 3.40383H25.1211C24.1812 3.40383 23.4192 2.64188 23.4192 1.70191C23.4192 0.761953 24.1812 0 25.1211 0H50.6794C55.8189 0 60 4.18113 60 9.32063V50.6794C60 55.8189 55.8189 60 50.6794 60ZM33.9484 60H9.32063C4.18113 60 0 55.8189 0 50.6794V9.32063C0 4.18113 4.18113 0 9.32063 0H13.1508C14.0907 0 14.8527 0.761953 14.8527 1.70191C14.8527 2.64188 14.0907 3.40383 13.1508 3.40383H9.32063C6.05824 3.40383 3.40383 6.05813 3.40383 9.32063V50.6794C3.40383 53.9418 6.05813 56.5962 9.32063 56.5962H33.9484C34.8884 56.5962 35.6503 57.3581 35.6503 58.2981C35.6503 59.238 34.8884 60 33.9484 60Z"/>
        <path d="M16.7698 22.5884C16.7408 22.5884 16.7121 22.5883 16.6833 22.5877C16.6601 22.5881 16.637 22.5882 16.6138 22.5882C15.1771 22.5882 13.8151 22.0158 12.7788 20.9766C11.733 19.9279 11.1574 18.535 11.1578 17.0548C11.1578 14.01 13.6484 11.5327 16.7096 11.5327C18.1813 11.5342 19.5653 12.1124 20.6106 13.1611C21.6576 14.2114 22.2326 15.6009 22.2294 17.0736C22.2226 20.1143 19.7732 22.5881 16.7698 22.5884C16.7701 22.5884 16.7696 22.5882 16.7698 22.5884ZM16.6862 19.1835C16.6997 19.1835 16.713 19.1836 16.7265 19.184L16.7701 19.1845C17.7606 19.1845 18.823 18.3332 18.8257 17.0659C18.8269 16.5034 18.6048 15.9701 18.2 15.5642C17.797 15.16 17.2679 14.937 16.7103 14.9365C15.5251 14.9365 14.5615 15.8869 14.5615 17.0553C14.5614 17.6283 14.7843 18.1673 15.1891 18.5732C15.5764 18.9616 16.0957 19.1843 16.6138 19.1843L16.6517 19.184C16.6632 19.1838 16.6748 19.1835 16.6862 19.1835Z"/>
        <path d="M47.14 48.8077H40.5327C39.5927 48.8077 38.8308 48.0457 38.8308 47.1057V36.0299C38.8308 35.496 38.6234 34.9947 38.2464 34.6181C37.8686 34.2403 37.367 34.0325 36.8338 34.0325L36.7908 34.033C35.7131 34.0553 34.8367 34.9846 34.8367 36.1047V47.1057C34.8367 48.0457 34.0747 48.8077 33.1348 48.8077H26.5418C25.6018 48.8077 24.8399 48.0457 24.8399 47.1057V25.6752C24.8399 24.7352 25.6018 23.9733 26.5418 23.9733H32.6371C33.2684 23.9733 33.8194 24.3171 34.1132 24.8275C35.3998 24.1604 37.1082 23.6817 39.3035 23.6817C44.0516 23.6817 48.8425 27.371 48.8425 35.6129L48.842 47.1057C48.8419 48.0457 48.0799 48.8077 47.14 48.8077ZM42.2348 45.4037H45.4382L45.4385 35.6128C45.4385 29.3257 42.2693 27.0854 39.3034 27.0854C35.3187 27.0854 34.2579 29.0252 34.1872 29.1639C33.8595 29.8875 33.0731 30.2897 32.2924 30.1283C31.5019 29.965 30.9349 29.2689 30.9349 28.4618V27.3771H28.2435V45.4038H31.4325V36.1047C31.4325 33.1464 33.8045 30.6904 36.72 30.6299C38.2071 30.5991 39.6056 31.1639 40.6525 32.2109C41.6725 33.2299 42.2343 34.5864 42.2343 36.03L42.2348 45.4037Z"/>
        <path d="M19.9905 48.8077H13.3963C12.4564 48.8077 11.6944 48.0458 11.6944 47.1058V25.6762C11.6944 24.7362 12.4571 23.9737 13.397 23.9737H19.9904C20.9303 23.9737 21.6923 24.7356 21.6923 25.6756V47.1059C21.6924 48.0458 20.9304 48.8077 19.9905 48.8077ZM15.0982 45.4038H18.2883V27.3776H15.0982V45.4038Z"/>
    </symbol>

    <symbol id="icon-telegram" viewBox="0 0 60 60">
        <path d="M25.7425 42.2116C25.7959 42.3846 27.7458 39.9471 27.7665 39.7668L26.892 35.4853C26.7768 34.9213 26.9811 34.3396 27.4237 33.9718L43.4548 20.6506C43.8405 20.3093 43.3924 19.7073 42.955 19.9783L24.1034 31.4763C23.6564 31.749 23.4258 32.2702 23.5246 32.7842L25.7425 42.2116Z"/>
        <path d="M41.1731 47.6832C40.4134 47.6832 39.685 47.4434 39.0673 46.99C39.0545 46.9806 39.042 46.9711 39.0295 46.9614L29.8433 39.816L26.0441 43.4418C25.4365 44.0498 24.6324 44.384 23.7758 44.384C22.3621 44.384 21.1273 43.4798 20.7033 42.1338C20.6958 42.1097 20.6886 42.0857 20.6822 42.0614L18.4652 33.7598L11.4553 31.69C10.2196 31.3253 9.38544 30.2576 9.33095 28.9702C9.27634 27.6825 10.0172 26.548 11.2183 26.08L45.9163 12.5583C46.3267 12.3984 46.7543 12.3174 47.1877 12.3174C48.2383 12.3174 49.2245 12.7896 49.8935 13.613C50.5558 14.428 50.8117 15.488 50.5956 16.5209L44.6713 44.8439C44.3274 46.489 42.8562 47.6832 41.1731 47.6832ZM41.0916 44.2532C41.1191 44.2714 41.1442 44.2792 41.1731 44.2792C41.1873 44.2792 41.3127 44.2757 41.3398 44.147L47.2638 15.824C47.2705 15.7921 47.2681 15.7793 47.2518 15.7593C47.2341 15.7375 47.2063 15.721 47.1876 15.721C47.179 15.721 47.1665 15.724 47.1522 15.7296L13.6447 28.7873L20.3447 30.7656C20.9135 30.9336 21.3539 31.3858 21.5071 31.9588L23.8709 40.8102L28.5546 36.3405C29.1646 35.7583 30.109 35.7106 30.7745 36.2283L41.0916 44.2532Z"/>
        <path d="M50.6794 60H46.2537C45.3137 60 44.5518 59.238 44.5518 58.2981C44.5518 57.3581 45.3137 56.5962 46.2537 56.5962H50.6794C53.9418 56.5962 56.5962 53.9419 56.5962 50.6794V9.32063C56.5962 6.05824 53.9419 3.40383 50.6794 3.40383H25.1211C24.1812 3.40383 23.4192 2.64188 23.4192 1.70191C23.4192 0.761953 24.1812 0 25.1211 0H50.6794C55.8189 0 60 4.18113 60 9.32063V50.6794C60 55.8189 55.8189 60 50.6794 60ZM33.9484 60H9.32063C4.18113 60 0 55.8189 0 50.6794V9.32063C0 4.18113 4.18113 0 9.32063 0H13.1508C14.0907 0 14.8527 0.761953 14.8527 1.70191C14.8527 2.64188 14.0907 3.40383 13.1508 3.40383H9.32063C6.05824 3.40383 3.40383 6.05813 3.40383 9.32063V50.6794C3.40383 53.9418 6.05813 56.5962 9.32063 56.5962H33.9484C34.8884 56.5962 35.6503 57.3581 35.6503 58.2981C35.6503 59.238 34.8884 60 33.9484 60Z"/>
    </symbol>
</svg>